<svg width="780" height="306" viewBox="0 0 780 306" fill="none" xmlns="http://www.w3.org/2000/svg">
<path d="M187.029 203.794L93.145 306V101.588L187.029 203.794Z" fill="url(#paint0_linear_427_333)"/>
<path d="M286.044 245.938C270.757 245.938 257.798 243.361 247.165 238.212C236.533 232.894 227.477 226.084 220 217.776L244.922 192.604C256.72 205.897 271.255 212.542 288.536 212.542C297.841 212.542 304.735 210.632 309.221 206.81C313.707 202.988 315.95 197.922 315.95 191.607C315.95 186.788 314.62 182.801 311.963 179.645C309.305 176.321 303.903 174.078 295.763 172.916L278.567 170.673C260.125 168.346 246.583 162.782 237.944 153.975C229.47 145.169 225.234 133.456 225.234 118.835C225.234 111.026 226.729 103.882 229.72 97.4019C232.71 90.9221 236.947 85.3561 242.43 80.7041C248.078 76.052 254.891 72.4798 262.866 69.9876C271.006 67.3293 280.227 66 290.53 66C303.654 66 315.202 68.0769 325.171 72.2305C335.14 76.3841 343.698 82.4486 350.841 90.4237L325.67 115.844C321.517 111.026 316.449 107.122 310.467 104.131C304.651 100.974 297.259 99.3956 288.287 99.3956C279.813 99.3956 273.498 100.891 269.346 103.882C265.193 106.872 263.115 111.026 263.115 116.343C263.115 122.324 264.695 126.644 267.85 129.302C271.174 131.96 276.489 133.871 283.801 135.034L300.997 137.776C318.941 140.6 332.234 146.166 340.872 154.474C349.511 162.614 353.832 174.246 353.832 189.365C353.832 197.673 352.336 205.315 349.346 212.293C346.355 219.271 341.953 225.252 336.137 230.237C330.489 235.221 323.427 239.125 314.953 241.95C306.48 244.607 296.844 245.938 286.044 245.938ZM378.511 242.947V212.791H400.941V99.1464H378.511V68.9907H461.252V99.1464H438.822V212.791H461.252V242.947H378.511ZM563.093 245.938C551.299 245.938 540.664 244.109 531.193 240.455C521.723 236.632 513.667 231.069 507.019 223.757C500.374 216.28 495.224 207.059 491.567 196.093C487.913 184.963 486.084 172.003 486.084 157.215C486.084 142.594 487.913 129.635 491.567 118.336C495.224 106.872 500.374 97.3187 507.019 89.676C513.667 81.867 521.723 75.9689 531.193 71.9813C540.664 67.9938 551.299 66 563.093 66C579.212 66 592.502 69.3231 602.969 75.9689C613.436 82.4486 621.829 92.7499 628.14 106.872L595.492 123.819C593.168 116.509 589.511 110.694 584.526 106.374C579.71 101.888 572.564 99.6449 563.093 99.6449C551.963 99.6449 542.991 103.3 536.178 110.611C529.533 117.755 526.209 128.222 526.209 142.012V169.925C526.209 183.717 529.533 194.265 536.178 201.576C542.991 208.72 551.963 212.293 563.093 212.293C572.399 212.293 579.791 209.801 585.274 204.816C590.925 199.667 595.078 193.517 597.735 186.374L628.639 204.318C622.159 217.611 613.604 227.91 602.969 235.221C592.502 242.364 579.212 245.938 563.093 245.938ZM711.474 245.938C696.187 245.938 683.227 243.361 672.595 238.212C661.959 232.894 652.907 226.084 645.43 217.776L670.352 192.604C682.146 205.897 696.685 212.542 713.966 212.542C723.268 212.542 730.165 210.632 734.651 206.81C739.137 202.988 741.38 197.922 741.38 191.607C741.38 186.788 740.05 182.801 737.393 179.645C734.732 176.321 729.333 174.078 721.193 172.916L703.997 170.673C685.555 168.346 672.012 162.782 663.374 153.975C654.9 145.169 650.664 133.456 650.664 118.835C650.664 111.026 652.159 103.882 655.149 97.4019C658.14 90.9221 662.377 85.3561 667.86 80.7041C673.508 76.052 680.321 72.4798 688.296 69.9876C696.436 67.3293 705.657 66 715.96 66C729.084 66 740.632 68.0769 750.601 72.2305C760.57 76.3841 769.125 82.4486 776.271 90.4237L751.1 115.844C746.944 111.026 741.879 107.122 735.897 104.131C730.081 100.974 722.688 99.3956 713.717 99.3956C705.243 99.3956 698.928 100.891 694.776 103.882C690.62 106.872 688.545 111.026 688.545 116.343C688.545 122.324 690.122 126.644 693.28 129.302C696.601 131.96 701.919 133.871 709.231 135.034L726.427 137.776C744.371 140.6 757.66 146.166 766.302 154.474C774.941 162.614 779.262 174.246 779.262 189.365C779.262 197.673 777.766 205.315 774.776 212.293C771.785 219.271 767.38 225.252 761.567 230.237C755.916 235.221 748.857 239.125 740.383 241.95C731.91 244.607 722.271 245.938 711.474 245.938Z" fill="black"/>
<path d="M-1 102.206L92.8843 204.412V0L-1 102.206Z" fill="url(#paint1_linear_427_333)"/>
<defs>
<linearGradient id="paint0_linear_427_333" x1="124.44" y1="276.522" x2="113.082" y2="96.8346" gradientUnits="userSpaceOnUse">
<stop stop-color="#FF4D4D"/>
<stop offset="1" stop-color="#FFC6C6"/>
</linearGradient>
<linearGradient id="paint1_linear_427_333" x1="61.5895" y1="31.8748" x2="61.5895" y2="186.555" gradientUnits="userSpaceOnUse">
<stop stop-color="#FF4A4A"/>
<stop offset="1" stop-color="#FFC6C6"/>
</linearGradient>
</defs>
</svg>
